<svg preserveAspectRatio="none" overflow="visible" style="display: block;" width="76.8219" height="76.8219" viewBox="0 0 76.8219 76.8219" fill="none" xmlns="http://www.w3.org/2000/svg">
<g id="Group 5">
<path id="Vector" opacity="0.1" d="M38.3903 6.34379L6.31738 38.4167L22.3421 54.4415L54.415 22.3685L38.3903 6.34379Z" fill="#0A8AFF"/>
<path id="Vector (Stroke)" fill-rule="evenodd" clip-rule="evenodd" d="M6.00457 38.768C5.82038 38.5838 5.82038 38.2852 6.00457 38.101L38.0775 6.02804C38.2617 5.84385 38.5603 5.84385 38.7445 6.02804L70.8175 38.101C71.0016 38.2852 71.0016 38.5838 70.8175 38.768L38.7445 70.8409C38.5603 71.0251 38.2617 71.0251 38.0775 70.8409L6.00457 38.768ZM7.00509 38.4345L38.411 69.8404L69.8169 38.4345L38.411 7.02856L7.00509 38.4345Z" fill="#0A8AFF"/>
<path id="Vector (Stroke)_2" fill-rule="evenodd" clip-rule="evenodd" d="M0.333507 38.7444C0.149316 38.5603 0.149316 38.2616 0.333507 38.0774L38.0774 0.333507C38.2616 0.149314 38.5603 0.149315 38.7445 0.333505L76.4884 38.0775C76.6726 38.2616 76.6726 38.5603 76.4884 38.7445L38.7445 76.4884C38.5603 76.6726 38.2616 76.6726 38.0775 76.4884L0.333507 38.7444ZM1.33403 38.4109L38.411 75.4879L75.4879 38.411L38.4109 1.33403L1.33403 38.4109Z" fill="#0A8AFF"/>
<g id="Group">
<path id="Vector (Stroke)_3" fill-rule="evenodd" clip-rule="evenodd" d="M29.3902 45.4383C29.206 45.6225 28.9074 45.6225 28.7232 45.4383L22.0638 38.779C21.8797 38.5948 21.8797 38.2962 22.0638 38.112L28.7232 31.4527C28.9073 31.2685 29.206 31.2685 29.3902 31.4527L36.0495 38.112C36.2337 38.2962 36.2337 38.5948 36.0495 38.779L29.3902 45.4383ZM29.0567 44.4378L35.049 38.4455L29.0567 32.4532L23.0644 38.4455L29.0567 44.4378Z" fill="#0A8AFF"/>
<path id="Vector (Stroke)_4" fill-rule="evenodd" clip-rule="evenodd" d="M38.7338 36.0763C38.5496 36.2605 38.2509 36.2605 38.0668 36.0763L31.4075 29.417C31.2233 29.2328 31.2233 28.9342 31.4075 28.75L38.0668 22.0907C38.251 21.9065 38.5496 21.9065 38.7338 22.0907L45.3931 28.75C45.5773 28.9342 45.5773 29.2328 45.3931 29.417L38.7338 36.0763ZM38.4003 35.0758L44.3926 29.0835L38.4003 23.0912L32.408 29.0835L38.4003 35.0758Z" fill="#0A8AFF"/>
<path id="Vector (Stroke)_5" fill-rule="evenodd" clip-rule="evenodd" d="M48.0726 45.4439C47.8884 45.628 47.5898 45.628 47.4056 45.4439L40.7463 38.7846C40.5621 38.6004 40.5621 38.3017 40.7463 38.1175L47.4056 31.4582C47.5898 31.274 47.8885 31.274 48.0726 31.4582L54.7319 38.1175C54.9161 38.3017 54.9161 38.6003 54.7319 38.7845L48.0726 45.4439ZM47.7391 44.4433L53.7314 38.451L47.7391 32.4588L41.7468 38.451L47.7391 44.4433Z" fill="#0A8AFF"/>
<path id="Vector (Stroke)_6" fill-rule="evenodd" clip-rule="evenodd" d="M38.7289 54.7587C38.5447 54.9429 38.2461 54.9429 38.0619 54.7587L31.4026 48.0994C31.2184 47.9152 31.2184 47.6166 31.4026 47.4324L38.0619 40.7731C38.2461 40.5889 38.5447 40.5889 38.7289 40.7731L45.3882 47.4324C45.5724 47.6165 45.5724 47.9152 45.3882 48.0994L38.7289 54.7587ZM38.3954 53.7582L44.3877 47.7659L38.3954 41.7736L32.4031 47.7659L38.3954 53.7582Z" fill="#0A8AFF"/>
</g>
</g>
</svg>
